<?xml version="1.0" encoding="iso-8859-1"?>
<!-- Generator: Adobe Illustrator 19.0.0, SVG Export Plug-In . SVG Version: 6.00 Build 0)  -->
<svg version="1.1" id="Capa_1" xmlns="http://www.w3.org/2000/svg" xmlns:xlink="http://www.w3.org/1999/xlink" x="0px" y="0px"
	 viewBox="0 0 333 333" style="enable-background:new 0 0 333 333;" xml:space="preserve">
<path d="M10,51.5h313c5.5,0,10-4.5,10-10s-4.5-10-10-10H10c-5.5,0-10,4.5-10,10S4.5,51.5,10,51.5z"/>
<path d="M323,114.5H104c-5.5,0-10,4.5-10,10s4.5,10,10,10h219c5.5,0,10-4.5,10-10S328.5,114.5,323,114.5z"/>
<path d="M10,218.5h313c5.5,0,10-4.5,10-10s-4.5-10-10-10H10c-5.5,0-10,4.5-10,10S4.5,218.5,10,218.5z"/>
<path d="M323,281.5H182c-5.5,0-10,4.5-10,10s4.5,10,10,10h141c5.5,0,10-4.5,10-10S328.5,281.5,323,281.5z"/>
<g>
</g>
<g>
</g>
<g>
</g>
<g>
</g>
<g>
</g>
<g>
</g>
<g>
</g>
<g>
</g>
<g>
</g>
<g>
</g>
<g>
</g>
<g>
</g>
<g>
</g>
<g>
</g>
<g>
</g>
</svg>
