<svg id="Warstwa_1" data-name="Warstwa 1" xmlns="http://www.w3.org/2000/svg" viewBox="0 0 566.93 566.93" ><defs><style>.cls-1{fill:#fff0;}</style></defs><path d="M461,136.09c0-7.75-1.78-14.8-7.14-20.67-4.39-4.8-10.13-7-16.22-8.6H160.72c-7,1.75-13.7,4.27-17.66,10.58-2.55,4.08-3.86,8.94-5.73,13.45V406.5c1.29,6.3,3.57,12.12,8.37,16.64,5.51,5.19,12.24,7.26,19.65,7.32,9,.06,17.91,0,26.87,0q119.64,0,239.28,0c6.68,0,13-1.13,18.52-5.2,7.19-5.32,10.51-12.67,10.93-21.47,0-.84,0-1.69,0-2.53Q461,268.69,461,136.09ZM302.85,303c-6.85,23.93-22.79,38.37-47,43.46a143.09,143.09,0,0,1-23.5,2.46c-9.88.4-19.8.13-29.7.09-7.25,0-9.71-2.44-9.72-9.67q0-32.22,0-64.45,0-31.75,0-63.51c0-8,2.31-10.4,10.41-10.28,15.15.23,30.4-.33,45.43,1.21,33.05,3.39,53.9,25.26,57.29,58.43C307.55,275,306.81,289.15,302.85,303Zm111.94,5.13c-1.21,20.5-13.35,34.78-33.49,38.87a101.36,101.36,0,0,1-17.54,1.93c-12.22.29-24.44.11-36.67.08-7.37,0-9.71-2.32-9.72-9.59q0-64.49,0-129c0-6.68,2.3-9.32,8.71-9.31,14.11,0,28.22.14,42.33.55a43.75,43.75,0,0,1,20.5,5.8c12.22,6.94,18.4,20.82,16.22,36-1.58,11-6.62,19.64-16.58,25.07a14.38,14.38,0,0,0-1.68,1.31c2.83,1,5.16,1.68,7.33,2.69C407.54,278.81,415.68,292.93,414.79,308.12Z"/><path class="cls-1" d="M394.2,272.58c-2.17-1-4.5-1.66-7.33-2.69a14.38,14.38,0,0,1,1.68-1.31c10-5.43,15-14.07,16.58-25.07,2.18-15.21-4-29.09-16.22-36a43.75,43.75,0,0,0-20.5-5.8c-14.11-.41-28.22-.53-42.33-.55-6.41,0-8.7,2.63-8.71,9.31q0,64.49,0,129c0,7.27,2.35,9.57,9.72,9.59,12.23,0,24.45.21,36.67-.08A101.36,101.36,0,0,0,381.3,347c20.14-4.09,32.28-18.37,33.49-38.87C415.68,292.93,407.54,278.81,394.2,272.58ZM341,217.3c8.71.33,17.49,0,26.13.91,10.58,1.15,16.12,7.34,17.63,17.94,1.67,11.8-2.75,21.54-12.5,26.17a28.78,28.78,0,0,1-10.64,2.41c-6.92.39-13.88.07-20.82.21-3,.06-3.83-1.28-3.79-4,.1-6.62,0-13.25,0-19.88s.08-13,0-19.57C337,218.57,337.93,217.19,341,217.3Zm52.45,96c-2.06,10.7-11.27,18.49-23.38,19-9.89.44-19.8.14-29.7.23-2.48,0-3.35-1.14-3.34-3.48.05-7.48,0-15,0-22.44h0c0-7.27.07-14.54,0-21.81-.05-2.9.87-4.23,4-4.13,9.47.31,19,0,28.41.73C386.91,282.75,396.76,296.1,393.45,313.31Z"/><path class="cls-1" d="M306.1,260.73c-3.39-33.17-24.24-55-57.29-58.43-15-1.54-30.28-1-45.43-1.21-8.1-.12-10.4,2.28-10.41,10.28q0,31.75,0,63.51,0,32.22,0,64.45c0,7.23,2.47,9.65,9.72,9.67,9.9,0,19.82.31,29.7-.09a143.09,143.09,0,0,0,23.5-2.46c24.16-5.09,40.1-19.53,47-43.46C306.81,289.15,307.55,275,306.1,260.73Zm-24.46,41.92c-5.88,17.92-19.14,27.28-37.55,29.08-9.29.91-18.71.49-28.06.76-3.08.09-3.34-1.75-3.34-4.09q0-26.68,0-53.38,0-26.37,0-52.74c0-4.61.17-4.89,4.84-4.74,9.77.31,19.65,0,29.28,1.38,17.57,2.55,29.58,12.84,35.17,29.7C288,266.55,287.5,284.78,281.64,302.65Z"/><path d="M337,306.64c0-7.27.08-14.54,0-21.81-.05-2.9.86-4.23,4-4.13,9.47.31,19,0,28.41.73,17.52,1.32,27.37,14.67,24.06,31.88-2.06,10.7-11.27,18.49-23.38,19-9.89.43-19.8.13-29.71.22-2.47,0-3.35-1.14-3.33-3.48.05-7.48,0-15,0-22.44Z"/><path d="M337,241c0-6.52.08-13,0-19.57-.05-2.9.93-4.28,4-4.16,8.71.32,17.49,0,26.13.91,10.58,1.14,16.12,7.33,17.62,17.93,1.68,11.8-2.74,21.54-12.49,26.17a29,29,0,0,1-10.64,2.42c-6.93.38-13.88.06-20.82.2-3,.06-3.84-1.28-3.79-4C337.11,254.3,337,247.67,337,241Z"/><path d="M212.7,275q0-26.37,0-52.74c0-4.61.16-4.89,4.84-4.74,9.77.31,19.65,0,29.28,1.38,17.57,2.55,29.58,12.85,35.17,29.7,5.95,17.93,5.5,36.17-.36,54s-19.14,27.28-37.55,29.08c-9.29.91-18.71.49-28.07.76-3.07.09-3.33-1.74-3.33-4.09Q212.74,301.72,212.7,275Z"/></svg>