<svg id="Warstwa_1" data-name="Warstwa 1" xmlns="http://www.w3.org/2000/svg" viewBox="0 0 566.93 566.93" ><path d="M499.46,146.39a40.21,40.21,0,0,0-.45-7.45c-3.89-20.78-20.21-34.39-41.46-34.41q-87.32-.09-174.62,0t-174.62,0c-24.19,0-41.93,17.79-41.94,41.83q0,97.59,0,195.17,0,22.94,0,45.88v.47a42.86,42.86,0,0,0,7,24c7.3,10.94,19.69,17.88,34.38,17.89H136q161,.11,322,0c23.75,0,41.44-18,41.45-41.83v-.5q0-22.93,0-45.88Q499.5,244,499.46,146.39Zm-65.07-23.15c-5.28,3.71-9.4,6.62-13.54,9.51Q353.8,179.51,286.76,226.3c-2.37,1.65-4.07,2.57-7,.53q-72.45-50.76-145.06-101.28c-.66-.46-1.28-1-3-2.31Zm1.45,287.7H130V206.31c1.95,1.33,3.4,2.27,4.81,3.27l1.16.82,25.41,18,29.37,20.79L221,270.56q14.26,10.11,28.5,20.21l29.34,20.84c3.05,2.17,5,2.33,8.14.08q71.67-51,143.55-101.72c1.56-1.11,3.14-2.18,5.32-3.68Z"/></svg>