<svg id="Warstwa_1" data-name="Warstwa 1" xmlns="http://www.w3.org/2000/svg" viewBox="0 0 566.93 566.93"><defs><style>.cls-1{fill:#fff;}</style></defs><path d="M442.85,130.46a34.46,34.46,0,0,0-33.11-23.73c-1.12,0-2.24,0-3.35,0q-124.15,0-248.32,0c-9.42,0-17.69,2.81-24.6,9.23a33.62,33.62,0,0,0-11.1,25.43q0,30.81,0,61.62,0,95.51,0,191a34.5,34.5,0,0,0,22.16,32.63,35.6,35.6,0,0,0,13,2.29q126,0,251.94,0a34.81,34.81,0,0,0,34.44-27.64c.25-1.21.45-2.43.67-3.65V138C444,135.48,443.65,132.9,442.85,130.46ZM375.46,344.79c-13.73,17.75-31.49,30.13-52.71,37.5a9.38,9.38,0,0,1-2.22.49c-4.12.44-6.95-2.09-6.94-6.24,0-12.8.12-25.6.15-38.4a41.54,41.54,0,0,0-1.51-12.2,23.47,23.47,0,0,0-6.46-10.78c4-.54,7.8-1,11.55-1.54a77.77,77.77,0,0,0,17.75-4.52,36.32,36.32,0,0,0,22.19-24.24,69.62,69.62,0,0,0,2.52-28.8C359,249.54,356,244,351.89,239c-1.07-1.31-2.25-2.54-3.29-3.89a1.94,1.94,0,0,1-.31-1.49c3.36-10.37,2.46-20.56-1.25-30.62a2.08,2.08,0,0,0-1.39-1.12c-3.28-.64-6.4.24-9.45,1.28-7.69,2.61-14.62,6.68-21.36,11.1a2.51,2.51,0,0,1-2.25.35,109.25,109.25,0,0,0-42.28-2.8c-5.05.66-10,1.81-15,2.81a2.88,2.88,0,0,1-2.37-.39c-6.76-4.47-13.75-8.54-21.48-11.14-3-1-6.1-1.84-9.33-1.21a2.05,2.05,0,0,0-1.3,1.05c-3.77,10.1-4.66,20.33-1.28,30.74a2,2,0,0,1-.43,1.58,47.6,47.6,0,0,0-7.06,10.08,34.67,34.67,0,0,0-3.31,14.39,79,79,0,0,0,2.59,24.45c4,14,13.25,22.72,27.1,26.8a123,123,0,0,0,20.13,3.73l3.2.37a2.89,2.89,0,0,1-.32.57,25.51,25.51,0,0,0-6.66,13.8,2.68,2.68,0,0,1-1.94,2.35c-6,2.22-12.16,3.35-18.51,1.56s-10.72-5.82-13.91-11.3a26,26,0,0,0-12-11.27c-3.17-1.38-6.42-2.51-10-1.79-2.57.51-3.16,1.83-1.48,3.78a15.15,15.15,0,0,0,3.78,3.38,21.08,21.08,0,0,1,7.63,7.4,87.33,87.33,0,0,1,5.78,11c2.72,6.43,7.52,10.28,13.95,12.4,6.27,2.06,12.74,2.21,19.25,1.72,2.26-.17,4.51-.52,6.81-.79,0,.31.06.62.06.93q.06,13.81.1,27.65c0,4.38-2.9,6.88-7.24,6.27a11.38,11.38,0,0,1-2.07-.51Q205.8,368.32,183.7,333.1a116.32,116.32,0,0,1-17.28-49c-3.47-29.92,2.47-57.71,19.7-82.66,13.95-20.18,32.82-34.06,56-42.1a118.22,118.22,0,0,1,43.8-6.46c33.77,1.34,62.69,13.74,85.78,38.69a107.75,107.75,0,0,1,28,57.8C405.1,284.5,397.32,316.55,375.46,344.79Zm-122.07-8c.05,1-1.28,2-2.88,2-.8-.15-1.84-.17-1.95-1.44-.1-1.08,1.12-2.08,2.48-2.1S253.34,335.88,253.39,336.76Zm-9.69,2.4a8.87,8.87,0,0,1-3.45.25c-.35,0-.83-.85-.86-1.32a1.74,1.74,0,0,1,.82-1.24,7.34,7.34,0,0,1,1.85-.56,7.78,7.78,0,0,1,1.68.68A1.23,1.23,0,0,1,243.7,339.16Zm-9.11-2.3c0,.87-.83,1.47-2,1.46-1.52,0-2.94-1-2.95-2,0-.85.94-1.49,2.2-1.48S234.58,335.85,234.59,336.86ZM226,332.43c-.07.57-.7,1.08-.91,1.39-1.78,0-3.33-1.48-3.34-2.74a1.37,1.37,0,0,1,1.52-1.49A3.07,3.07,0,0,1,226,332.43Zm-6.2-6.48c-.27.22-.7.89-1.23,1-1.1.18-2.51-1.45-2.49-2.69a1.3,1.3,0,0,1,1.38-1.46C218.46,322.76,219.71,324.26,219.75,326Zm-4.95-7c-.08.51-.62.95-.8,1.22-1.55-.06-2.85-1.33-2.59-2.33a1.82,1.82,0,0,1,1.21-1.11A2.21,2.21,0,0,1,214.8,318.93Zm-5-4.47a3.81,3.81,0,0,1-1.16.62c-.87.1-2.15-.95-2-1.61a1.54,1.54,0,0,1,1.17-.84C208.79,312.61,209.49,313.15,209.77,314.46Z"/><path class="cls-1" d="M232.56,338.32c-1.51,0-2.93-1-2.94-2,0-.85.94-1.49,2.2-1.48s2.76,1,2.77,2S233.76,338.33,232.56,338.32Z"/><path class="cls-1" d="M242.05,336.29a8.39,8.39,0,0,1,1.69.67,1.24,1.24,0,0,1-.05,2.2,8.62,8.62,0,0,1-3.44.24c-.34,0-.83-.84-.86-1.31a1.71,1.71,0,0,1,.82-1.24A7,7,0,0,1,242.05,336.29Z"/><path class="cls-1" d="M250.5,338.77c-.79-.16-1.83-.17-1.94-1.44-.1-1.07,1.12-2.08,2.48-2.1s2.3.65,2.34,1.53S252.11,338.74,250.5,338.77Z"/><path class="cls-1" d="M225,333.82c-1.78,0-3.33-1.48-3.34-2.74a1.37,1.37,0,0,1,1.52-1.49,3.06,3.06,0,0,1,2.73,2.84C225.88,333,225.25,333.51,225,333.82Z"/><path class="cls-1" d="M219.75,326c-.27.22-.7.89-1.24,1-1.09.19-2.5-1.45-2.48-2.69a1.3,1.3,0,0,1,1.38-1.46C218.46,322.76,219.72,324.26,219.75,326Z"/><path class="cls-1" d="M214,320.15c-1.55-.06-2.84-1.33-2.59-2.33a1.85,1.85,0,0,1,1.22-1.11,2.2,2.2,0,0,1,2.18,2.23C214.72,319.44,214.18,319.88,214,320.15Z"/><path class="cls-1" d="M209.77,314.46c-.35.19-.73.57-1.16.62-.86.1-2.15-.95-2-1.6a1.56,1.56,0,0,1,1.18-.86C208.8,312.6,209.49,313.14,209.77,314.46Z"/></svg>