<svg xmlns="http://www.w3.org/2000/svg" width="256" height="256" viewBox="-90 -90 450 450">
  <path id="linkedin2" d="M236.135-1.353A18.717,18.717,0,0,1,255.073,17.1V236.173a18.729,18.729,0,0,1-18.938,18.472H17.955A18.693,18.693,0,0,1-.927,236.173V17.1A18.681,18.681,0,0,1,17.955-1.353Zm-18.91,218.137v-67c0-32.9-7.1-58.2-45.55-58.2-18.473,0-30.862,10.129-35.925,19.733h-.52v-16.7H98.83V216.784h37.924V156.36c0-15.937,3.015-31.378,22.772-31.378,19.486,0,19.729,18.226,19.729,32.393v59.408h37.966ZM75.013,94.618H37V216.784H75.013ZM56.018,33.89A22.019,22.019,0,1,0,78.026,55.9,22.019,22.019,0,0,0,56.018,33.89Z" transform="translate(0.927 1.354)"/>
</svg>
