<svg id="Warstwa_1" data-name="Warstwa 1" xmlns="http://www.w3.org/2000/svg" viewBox="0 0 566.93 566.93"><path d="M445.82,151.15q0-3-.23-6c-1.64-22.55-21-40.53-43.73-40.53q-118.35,0-236.7,0a44.11,44.11,0,0,0-44.06,44.37q0,116.69,0,233.38c0,2.5.1,5,.35,7.51a42.77,42.77,0,0,0,15,28.64c8.55,7.45,18.62,10.79,29.9,10.79q57.68,0,115.36,0c39.93,0,79.86.07,119.79-.09a44.62,44.62,0,0,0,13.68-2.16c18.94-6.28,30.6-22.87,30.61-42.82Q445.83,267.73,445.82,151.15ZM401.73,404.24q-117.9-.18-235.82-.07c-11.8,0-19.6-7.74-19.6-19.51q0-59,0-118c0-39.11.06-78.23-.05-117.35,0-8.84,5-15.6,11.92-18.16a21.23,21.23,0,0,1,7.13-1.21q118.24-.09,236.48,0c10.92,0,18.82,8.05,18.82,19q0,118.24.07,236.48A19.2,19.2,0,0,1,401.73,404.24Z"/><path d="M395.85,377.8c0,.43-.06.87-.1,1.45h-50v-3q0-36.17,0-72.32c0-6-.33-11.95-2.35-17.68-2.84-8-9-12.7-17.47-12.88a55.21,55.21,0,0,0-11.64.8c-8.73,1.7-13.7,7.5-16.06,15.84a71.21,71.21,0,0,0-2.2,19.27c-.06,22.4,0,44.8,0,67.2v2.77H246c0-.79-.1-1.58-.1-2.37q0-72.42,0-144.84c0-2,.54-2.63,2.59-2.62,15,.08,30,0,45,.05.73,0,1.45.06,2.41.1v21.91c.53-.44.79-.56.89-.76,6.47-12.06,16.87-18.39,30.11-20.39a78.4,78.4,0,0,1,31.18,1.49c16.09,4.09,26.55,14.32,32,29.84a94.37,94.37,0,0,1,5.27,29.91c.36,20.09.34,40.18.44,60.28C395.88,360.5,395.85,369.15,395.85,377.8Z"/><rect x="171.29" y="229.67" width="49.64" height="149.63"/><path d="M221.07,180.91c-.26,13-12,24-25.15,23.71-14.54-.35-25.06-11.43-24.78-26.1.25-13,11.91-24.11,25.05-23.82C210.84,155,221.37,166.12,221.07,180.91Z"/></svg>