<svg xmlns="http://www.w3.org/2000/svg" viewBox="0 0 1440 320"><path fill-opacity="1" d="M0,256L21.8,234.7C43.6,213,87,171,131,133.3C174.5,96,218,64,262,74.7C305.5,85,349,139,393,133.3C436.4,128,480,64,524,53.3C567.3,43,611,85,655,101.3C698.2,117,742,107,785,128C829.1,149,873,203,916,202.7C960,203,1004,149,1047,154.7C1090.9,160,1135,224,1178,229.3C1221.8,235,1265,181,1309,176C1352.7,171,1396,213,1418,234.7L1440,256L1440,320L1418.2,320C1396.4,320,1353,320,1309,320C1265.5,320,1222,320,1178,320C1134.5,320,1091,320,1047,320C1003.6,320,960,320,916,320C872.7,320,829,320,785,320C741.8,320,698,320,655,320C610.9,320,567,320,524,320C480,320,436,320,393,320C349.1,320,305,320,262,320C218.2,320,175,320,131,320C87.3,320,44,320,22,320L0,320Z"></path></svg>
