<svg viewBox="0 0 200 200" xmlns="http://www.w3.org/2000/svg">
  <path d="M35.6,-58.4C39.4,-59.4,31.1,-36.3,37.3,-22.5C43.4,-8.8,64,-4.4,72.1,4.7C80.3,13.8,76.1,27.6,69.6,40.8C63.1,54,54.4,66.6,42.5,76.2C30.5,85.8,15.2,92.3,-0.4,93C-16,93.7,-32.1,88.5,-41.2,77.3C-50.4,66.1,-52.6,48.9,-45.7,35C-38.9,21.1,-22.8,10.6,-22.4,0.3C-21.9,-10.1,-37.1,-20.1,-43.9,-33.9C-50.8,-47.7,-49.3,-65.3,-40.6,-61.5C-31.9,-57.7,-16,-32.6,0,-32.5C15.9,-32.4,31.7,-57.5,35.6,-58.4Z" transform="translate(100 100)" />
</svg>